<svg xmlns="http://www.w3.org/2000/svg" version="1.1" xmlns:xlink="http://www.w3.org/1999/xlink" xmlns:svgjs="http://svgjs.com/svgjs" width="512" height="512" x="0" y="0" viewBox="0 0 204.8 204.8" style="enable-background:new 0 0 512 512" xml:space="preserve" class=""><g><path d="M201.387 102.4c0-54.67-44.317-98.987-98.987-98.987S3.413 47.73 3.413 102.4h197.974z" style="" fill="#ee5281" data-original="#ee5281"></path><path d="M204.8 105.813H0V102.4C0 45.937 45.937 0 102.4 0s102.4 45.937 102.4 102.4v3.413zM6.886 98.987h191.027c-1.802-51.127-43.955-92.16-95.514-92.16S8.689 47.86 6.886 98.987z" fill="#000000" data-original="#000000"></path><path d="M201.387 102.4c0 54.67-44.317 98.987-98.987 98.987S3.413 157.07 3.413 102.4h197.974z" style="" fill="#ffffff" data-original="#ffffff"></path><path d="M102.4 204.8C45.937 204.8 0 158.863 0 102.4a3.414 3.414 0 0 1 3.413-3.413h197.973a3.414 3.414 0 0 1 3.413 3.413c.001 56.463-45.936 102.4-102.399 102.4zM6.886 105.813c1.802 51.127 43.955 92.16 95.514 92.16s93.711-41.033 95.514-92.16H6.886z" fill="#000000" data-original="#000000"></path><circle cx="102.4" cy="102.4" r="37.547" style="" fill="#777777" data-original="#777777"></circle><path d="M102.4 143.36c-22.586 0-40.96-18.374-40.96-40.96s18.374-40.96 40.96-40.96 40.96 18.374 40.96 40.96-18.374 40.96-40.96 40.96zm0-75.093c-18.821 0-34.133 15.312-34.133 34.133s15.312 34.133 34.133 34.133 34.133-15.312 34.133-34.133-15.312-34.133-34.133-34.133z" fill="#000000" data-original="#000000"></path><circle cx="102.4" cy="102.4" r="23.893" style="" fill="#ffffff" data-original="#ffffff"></circle><path d="M102.4 129.707c-15.056 0-27.307-12.25-27.307-27.307s12.25-27.307 27.307-27.307 27.307 12.25 27.307 27.307-12.251 27.307-27.307 27.307zm0-47.787c-11.293 0-20.48 9.187-20.48 20.48s9.187 20.48 20.48 20.48 20.48-9.187 20.48-20.48-9.187-20.48-20.48-20.48z" fill="#000000" data-original="#000000"></path></g></svg>